# xmcd CD database file
#
# Track frame offsets:
#	150
#	21970
#	56535
#	77330
#	106965
#	134840
#	169792
#	199372
#	220992
#
# Disc length: 3190 seconds
#
# Revision: 2
# Processed by: cddbd v1.4PL0 Copyright (c) Steve Scherf et al.
# Submitted via: CDex 1.40Release
#
DISCID=7f0c7409
DTITLE=Various Artist - Blues Masters
DYEAR=1995
DGENRE=Blues
TTITLE0=Can't Get You Off My Mind - Lloyd Jones
TTITLE1=Kansas City Monarch - Ronnie Earl and The Broadcasters
TTITLE2=Too Proud - Mighty Sam McClain
TTITLE3=Bring It On Home - Doug Macleod
TTITLE4=Feel Like Going Home - Robert Lucas
TTITLE5=Down In Mississippi - Tery Evans
TTITLE6=Feets Out In The Hallway - Joe Beard featuring Ronnie Earl and The Broadcasters
TTITLE7=I'm So Lonely - Mighty Sam McClain
TTITLE8=Moonshine 2 - Robert Lucas
EXTD=YEAR: 1995 ID3G: 0
EXTT0=
EXTT1=
EXTT2=
EXTT3=
EXTT4=
EXTT5=
EXTT6=
EXTT7=
EXTT8=
PLAYORDER=
